<svg xmlns="http://www.w3.org/2000/svg" aria-hidden="true" style="position:absolute;width:0;height:0;overflow:hidden">
  <defs>
    <symbol id="icon-benefits-choco-all" viewBox="0 0 31 32">
      <path d="m13.045.456 8.306 8.316.088-.088a.948.948 0 0 1 1.306-.015l.963.963c.337.337.348.85.092 1.207l-.004.008-.158.212 6.797 6.797a1.539 1.539 0 0 1 0 2.185L20.029 30.447a1.539 1.539 0 0 1-2.185 0l-4.907-4.907a.918.918 0 0 1-.675.35.93.93 0 0 1-.71-.272l-2.869-2.869a.948.948 0 0 1-.015-1.306l.007-.008.085-.084-8.306-8.306a1.539 1.539 0 0 1 0-2.185L10.859.455a1.539 1.539 0 0 1 2.185 0v.001zm7.263 9.357L18.37 7.876a.655.655 0 0 0-.938 0l-3.95 3.95a.664.664 0 0 0-.146.731.68.68 0 0 0 .146.217l1.93 1.93.673-.673-1.727-1.727L17.9 8.751l1.731 1.737.676-.676zm-5.601 5.597-1.935-1.935a.655.655 0 0 0-.938 0l-3.961 3.961a.653.653 0 0 0 0 .938l1.933 1.933.68-.68-1.732-1.726 3.553-3.542 1.726 1.725.675-.674zM7.528 6.834l3.95 3.95a.644.644 0 0 0 .938-.011l3.95-3.95a.643.643 0 0 0 .199-.463h.011a.674.674 0 0 0-.199-.474l-3.95-3.95a.667.667 0 0 0-.948 0l-3.95 3.961a.653.653 0 0 0 0 .938zm-5.595 5.594 3.95 3.95a.653.653 0 0 0 .938 0l3.95-3.95a.643.643 0 0 0 .199-.474h.011a.655.655 0 0 0-.199-.474l-3.95-3.95a.655.655 0 0 0-.938 0l-3.961 3.961a.653.653 0 0 0 0 .938zm7.65 9.66 2.606 2.607 10.633-14.389-.723-.723L9.583 22.087z" style="fill:var(--color1, #000)"/>
      <path fill="#fd9222" d="m13.045.456 8.306 8.316.088-.088a.948.948 0 0 1 1.306-.015l.963.963c.337.337.348.85.092 1.207l-.004.008-.158.212 6.797 6.797a1.539 1.539 0 0 1 0 2.185L20.029 30.447a1.539 1.539 0 0 1-2.185 0l-4.907-4.907a.918.918 0 0 1-.675.35.93.93 0 0 1-.71-.272l-2.869-2.869a.948.948 0 0 1-.015-1.306l.007-.008.085-.084-8.306-8.306a1.539 1.539 0 0 1 0-2.185L10.859.455a1.539 1.539 0 0 1 2.185 0v.001zm7.263 9.357L18.37 7.876a.655.655 0 0 0-.938 0l-3.95 3.95a.664.664 0 0 0-.146.731.68.68 0 0 0 .146.217l1.93 1.93.673-.673-1.727-1.727L17.9 8.751l1.731 1.737.676-.676zm-5.601 5.597-1.935-1.935a.655.655 0 0 0-.938 0l-3.961 3.961a.653.653 0 0 0 0 .938l1.933 1.933.68-.68-1.732-1.726 3.553-3.542 1.726 1.725.675-.674zM7.528 6.834l3.95 3.95a.644.644 0 0 0 .938-.011l3.95-3.95a.643.643 0 0 0 .199-.463h.011a.674.674 0 0 0-.199-.474l-3.95-3.95a.667.667 0 0 0-.948 0l-3.95 3.961a.653.653 0 0 0 0 .938zm-5.595 5.594 3.95 3.95a.653.653 0 0 0 .938 0l3.95-3.95a.643.643 0 0 0 .199-.474h.011a.655.655 0 0 0-.199-.474l-3.95-3.95a.655.655 0 0 0-.938 0l-3.961 3.961a.653.653 0 0 0 0 .938zm7.65 9.66 2.606 2.607 10.633-14.389-.723-.723L9.583 22.087z" style="fill:var(--color2, #fd9222)"/>
    </symbol>
    <symbol id="icon-benefits-money-all" viewBox="0 0 21 32">
      <path fill="#fd9222" d="M13.748 13.63H7.585c-1.185 0-2.133-.948-2.133-2.133S6.4 9.364 7.585 9.364h8.77c1.422 0 2.37-.948 2.37-2.37s-.948-2.37-2.37-2.37h-3.319V2.491c0-1.422-.948-2.37-2.37-2.37s-2.37.948-2.37 2.37v2.133h-.711c-3.793 0-6.874 3.082-6.874 6.874s3.081 6.874 6.874 6.874h5.926c1.185 0 2.133.948 2.133 2.133s-.948 2.133-2.133 2.133h-8.77c-1.422 0-2.37.948-2.37 2.37s.948 2.37 2.37 2.37h3.556v2.133c0 1.422.948 2.37 2.37 2.37s2.37-.948 2.37-2.37v-2.133h.711c3.793 0 6.874-3.081 6.874-6.874s-3.081-6.874-6.874-6.874z" style="fill:var(--color2, #fd9222)"/>
    </symbol>
    <symbol id="icon-benefits-spoon-all" viewBox="0 0 32 32">
      <path fill="#fd9222" d="M15.373 13.835a5.895 5.895 0 0 1-1.345-3.751c0-4.941 5.921-9.877 11.842-9.877a5.923 5.923 0 0 1 5.921 5.922c0 5.922-4.934 11.845-9.881 11.845a5.887 5.887 0 0 1-3.75-1.345L3.579 31.213a1.977 1.977 0 0 1-2.794-2.795l14.587-14.584z" style="fill:var(--color2, #fd9222)"/>
    </symbol>
    <symbol id="icon-flag-dsktp-tab" viewBox="0 0 43 32">
      <path fill="gold" d="M42.442.078H.323v31.344h42.119V.078z" style="fill:var(--color3, #ffd700)"/>
      <path fill="#0057b7" d="M.324.078h42.119V15.75H.324V.078z" style="fill:var(--color4, #0057b7)"/>
    </symbol>
    <symbol id="icon-flag-mob" viewBox="0 0 43 32">
      <path fill="gold" d="M42.443.523H.324v31.344h42.119V.523z" style="fill:var(--color3, #ffd700)"/>
      <path fill="#0057b7" d="M.324.523h42.119v15.672H.324V.523z" style="fill:var(--color4, #0057b7)"/>
    </symbol>
    <symbol id="icon-footer-insta-dsktp-tab" viewBox="0 0 32 32">
      <path fill="none" stroke="#fff" stroke-linecap="round" stroke-linejoin="round" stroke-width="2.667" d="M22.667 2.667H9.334a6.667 6.667 0 0 0-6.667 6.667v13.333a6.667 6.667 0 0 0 6.667 6.667h13.333a6.667 6.667 0 0 0 6.667-6.667V9.334a6.667 6.667 0 0 0-6.667-6.667z" style="stroke:var(--color5, #fff)"/>
      <path fill="none" stroke="#fff" stroke-linecap="round" stroke-linejoin="round" stroke-width="2.667" d="M21.333 15.16a5.329 5.329 0 0 1-2.878 5.546 5.338 5.338 0 0 1-6.169-.992 5.33 5.33 0 0 1-.992-6.169 5.336 5.336 0 0 1 10.04 1.615zM23.333 8.667h.013" style="stroke:var(--color5, #fff)"/>
    </symbol>
    <symbol id="icon-footer-insta-mob" viewBox="0 0 32 32">
      <path fill="none" stroke="#fff" stroke-linecap="round" stroke-linejoin="round" stroke-width="2.182" d="M22.667 2.667H9.334a6.667 6.667 0 0 0-6.667 6.667v13.333a6.667 6.667 0 0 0 6.667 6.667h13.333a6.667 6.667 0 0 0 6.667-6.667V9.334a6.667 6.667 0 0 0-6.667-6.667z" style="stroke:var(--color5, #fff)"/>
      <path fill="none" stroke="#fff" stroke-linecap="round" stroke-linejoin="round" stroke-width="2.182" d="M21.333 15.16a5.338 5.338 0 0 1-6.123 6.049 5.334 5.334 0 0 1-3.916-7.663 5.333 5.333 0 0 1 8.536-1.374 5.328 5.328 0 0 1 1.504 2.989zM23.333 8.667h.015" style="stroke:var(--color5, #fff)"/>
    </symbol>
    <symbol id="icon-footer-twitter-dsktp-tab" viewBox="0 0 37 32">
      <path fill="none" stroke="#fff" stroke-linecap="round" stroke-linejoin="round" stroke-width="3.048" d="M35.048 3.048a16.59 16.59 0 0 1-4.785 2.331 6.818 6.818 0 0 0-7.585-1.898c-1.306.499-2.428 1.387-3.214 2.544s-1.197 2.527-1.178 3.926v1.524A16.241 16.241 0 0 1 4.572 4.572s-6.095 13.714 7.619 19.809a17.745 17.745 0 0 1-10.667 3.048C15.238 35.048 32 27.429 32 9.905a6.803 6.803 0 0 0-.122-1.265 11.769 11.769 0 0 0 3.17-5.592z" style="stroke:var(--color5, #fff)"/>
    </symbol>
    <symbol id="icon-footer-twitter-mob" viewBox="0 0 37 32">
      <path fill="none" stroke="#fff" stroke-linecap="round" stroke-linejoin="round" stroke-width="2.526" d="M35.509 2.947a16.821 16.821 0 0 1-4.848 2.362 6.92 6.92 0 0 0-7.685-1.923 6.916 6.916 0 0 0-4.449 6.554v1.544c-2.713.07-5.402-.531-7.826-1.752s-4.93-4.126-6.49-6.347c0 0-5.754 14.999 8.14 21.175a17.978 17.978 0 0 1-10.807 3.088c13.895 7.719 30.877 0 30.877-17.754a6.968 6.968 0 0 0-.124-1.281 11.911 11.911 0 0 0 3.211-5.666z" style="stroke:var(--color5, #fff)"/>
    </symbol>
    <symbol id="icon-header-choco-dsktp" viewBox="0 0 28 32">
      <path fill="none" stroke="#fd9222" stroke-linecap="round" stroke-linejoin="round" stroke-width="2.667" d="M20.301 23.88 6.116 15.016m3.912-6.417 14.185 8.864M9.297 25.864l11.736-19.25m4.81 8.175c-3.04-1.899-4.234-3.384-2.278-6.592l-9.626-6.015-11.736 19.25 14.186 8.864 9.454-15.507z" style="stroke:var(--color2, #fd9222)"/>
    </symbol>
    <symbol id="icon-header-choco-tab-mob" viewBox="0 0 27 32">
      <path fill="none" stroke="#fd9222" stroke-linecap="round" stroke-linejoin="round" stroke-width="2.743" d="M20.111 23.118 5.926 14.254m3.911-6.417 14.186 8.864M9.106 25.102l11.736-19.25m4.81 8.175c-3.04-1.899-4.234-3.384-2.278-6.592L13.748 1.42 2.012 20.67l14.186 8.864 9.454-15.507z" style="stroke:var(--color2, #fd9222)"/>
    </symbol>
    <symbol id="icon-header-insta-dsktp" viewBox="0 0 32 32">
      <path stroke-linecap="round" stroke-linejoin="round" stroke-width="2.667" d="M22.667 2.667H9.334a6.667 6.667 0 0 0-6.667 6.667v13.333a6.667 6.667 0 0 0 6.667 6.667h13.333a6.667 6.667 0 0 0 6.667-6.667V9.334a6.667 6.667 0 0 0-6.667-6.667z"/>
      <path stroke-linecap="round" stroke-linejoin="round" stroke-width="2.667" d="M21.333 15.16a5.329 5.329 0 0 1-2.878 5.546 5.338 5.338 0 0 1-6.169-.992 5.33 5.33 0 0 1-.992-6.169 5.336 5.336 0 0 1 10.04 1.615zM23.333 8.667h.013"/>
    </symbol>
    <symbol id="icon-header-twitter-dsktp" viewBox="0 0 37 32">
      <path stroke-linecap="round" stroke-linejoin="round" stroke-width="3.048" d="M35.048 3.048a16.59 16.59 0 0 1-4.785 2.331 6.818 6.818 0 0 0-7.585-1.898c-1.306.499-2.428 1.387-3.214 2.544s-1.197 2.527-1.178 3.926v1.524c-2.678.069-5.331-.524-7.724-1.729S5.35 5.674 3.81 3.482c0 0-5.333 14.805 8.381 20.9A17.745 17.745 0 0 1 1.524 27.43C15.238 35.049 32 27.43 32 9.906a6.803 6.803 0 0 0-.122-1.265 11.769 11.769 0 0 0 3.17-5.592z"/>
    </symbol>
    <symbol id="icon-hero-scrl-down-dsktp-tab" viewBox="0 0 56 32">
      <path fill="#fd9222" d="M30.603 21.134A3.675 3.675 0 0 1 28 22.219a3.67 3.67 0 0 1-2.603-1.085L8.604 4.304a3.675 3.675 0 0 0-2.603-1.085 3.67 3.67 0 0 0-2.603 6.255l16.83 16.83a10.998 10.998 0 0 0 15.546 0l16.83-16.83a3.669 3.669 0 0 0 .791-3.975A3.675 3.675 0 0 0 51.411 3.5a3.651 3.651 0 0 0-2.82 0 3.659 3.659 0 0 0-1.193.803l-16.793 16.83z" style="fill:var(--color2, #fd9222)"/>
    </symbol>
    <symbol id="icon-hero-scrl-down-mob" viewBox="0 0 53 32">
      <path fill="#fd9222" d="M29.192 20.979a3.558 3.558 0 0 1-5.048 0L7.86 4.659a3.558 3.558 0 1 0-5.048 5.014l16.32 16.32a10.67 10.67 0 0 0 15.076 0l16.32-16.32a3.555 3.555 0 0 0 .767-3.854 3.562 3.562 0 0 0-1.924-1.937 3.563 3.563 0 0 0-2.734 0c-.433.18-.827.445-1.157.778L29.196 20.98z" style="fill:var(--color2, #fd9222)"/>
    </symbol>
    <symbol id="icon-mobile-menu-close-mob" viewBox="0 0 32 32">
      <path fill="none" stroke="#fff" stroke-linecap="round" stroke-linejoin="round" stroke-width="4.571" d="M29.334 2.667 2.667 29.334m0-26.667 26.667 26.667" style="stroke:var(--color5, #fff)"/>
    </symbol>
    <symbol id="icon-mobile-menu-close-tab" viewBox="0 0 32 32">
      <path fill="none" stroke="#fff" stroke-linecap="round" stroke-linejoin="round" stroke-width="4" d="M29.333 2.667 2.666 29.334m.001-26.667 26.667 26.667" style="stroke:var(--color5, #fff)"/>
    </symbol>
    <symbol id="icon-mobile-menu-icon-mob" viewBox="0 0 48 32">
      <path stroke-linecap="round" stroke-linejoin="round" stroke-width="4" d="M3 16h42M3 2h42M3 30h42"/>
    </symbol>
    <symbol id="icon-mobile-menu-icon-tab" viewBox="0 0 45 32">
      <path stroke-linecap="round" stroke-linejoin="round" stroke-width="4" d="M3.2 16h38.4M3.2 3.2h38.4M3.2 28.8h38.4"/>
    </symbol>
    <symbol id="icon-mobile-menu-insta-mob" viewBox="0 0 32 32">
      <path fill="none" stroke="#fff" stroke-linecap="round" stroke-linejoin="round" stroke-width="2.182" d="M22.667 2.667H9.334a6.667 6.667 0 0 0-6.667 6.667v13.333a6.667 6.667 0 0 0 6.667 6.667h13.333a6.667 6.667 0 0 0 6.667-6.667V9.334a6.667 6.667 0 0 0-6.667-6.667z" style="stroke:var(--color5, #fff)"/>
      <path fill="none" stroke="#fff" stroke-linecap="round" stroke-linejoin="round" stroke-width="2.182" d="M21.333 15.16a5.338 5.338 0 0 1-6.123 6.049 5.334 5.334 0 0 1-3.916-7.663 5.333 5.333 0 0 1 8.536-1.374 5.328 5.328 0 0 1 1.504 2.989zM23.333 8.667h.015" style="stroke:var(--color5, #fff)"/>
    </symbol>
    <symbol id="icon-mobile-menu-insta-tab" viewBox="0 0 32 32">
      <path fill="none" stroke="#fff" stroke-linecap="round" stroke-linejoin="round" stroke-width="2.667" d="M22.667 2.667H9.334a6.667 6.667 0 0 0-6.667 6.667v13.333a6.667 6.667 0 0 0 6.667 6.667h13.333a6.667 6.667 0 0 0 6.667-6.667V9.334a6.667 6.667 0 0 0-6.667-6.667z" style="stroke:var(--color5, #fff)"/>
      <path fill="none" stroke="#fff" stroke-linecap="round" stroke-linejoin="round" stroke-width="2.667" d="M21.333 15.16a5.329 5.329 0 0 1-2.878 5.546 5.338 5.338 0 0 1-6.169-.992 5.33 5.33 0 0 1 1.316-8.505 5.336 5.336 0 0 1 6.228.962 5.328 5.328 0 0 1 1.504 2.989zM23.333 8.667h.013" style="stroke:var(--color5, #fff)"/>
    </symbol>
    <symbol id="icon-mobile-menu-twitter-mob" viewBox="0 0 36 32">
      <path fill="none" stroke="#fff" stroke-linecap="round" stroke-linejoin="round" stroke-width="2.667" d="M34.074 2.667a16.15 16.15 0 0 1-4.652 2.267 6.635 6.635 0 0 0-10.5.628 6.636 6.636 0 0 0-1.145 3.817v1.481c-2.604.068-5.183-.51-7.51-1.681S5.94 5.687 4.443 3.556c0 0-5.926 13.926 7.407 19.852a17.242 17.242 0 0 1-10.37 2.963c13.333 7.407 29.63 0 29.63-17.037a6.598 6.598 0 0 0-.119-1.23 11.433 11.433 0 0 0 3.081-5.437z" style="stroke:var(--color5, #fff)"/>
    </symbol>
    <symbol id="icon-mobile-menu-twitter-tab" viewBox="0 0 37 32">
      <path fill="none" stroke="#fff" stroke-linecap="round" stroke-linejoin="round" stroke-width="3.048" d="M35.048 3.048a16.59 16.59 0 0 1-4.785 2.331 6.818 6.818 0 0 0-7.585-1.898c-1.306.499-2.428 1.387-3.214 2.544s-1.197 2.527-1.178 3.926v1.524c-2.678.069-5.331-.524-7.724-1.729S5.35 5.674 3.81 3.482c0 0-5.333 14.805 8.381 20.9A17.745 17.745 0 0 1 1.524 27.43C15.238 35.049 32 27.43 32 9.906a6.803 6.803 0 0 0-.122-1.265 11.769 11.769 0 0 0 3.17-5.592z" style="stroke:var(--color5, #fff)"/>
    </symbol>
    <symbol id="icon-modal-close-dsktp-tab" viewBox="0 0 32 32">
      <path stroke-linecap="round" stroke-linejoin="round" stroke-width="2.286" d="M24 8 8 24M8 8l16 16"/>
    </symbol>
    <symbol id="icon-modal-close-mob" viewBox="0 0 32 32">
      <path stroke-linecap="round" stroke-linejoin="round" stroke-width="2.667" d="M24 8 8 24M8 8l16 16"/>
    </symbol>
    <symbol id="icon-payment-icon-dsktp-tab" viewBox="0 0 51 32">
      <path fill="#ed0006" d="M25.6 26.935a14.53 14.53 0 0 1-9.496 3.518c-8.086 0-14.641-6.593-14.641-14.726S8.018 1.001 16.104 1.001c3.624 0 6.94 1.324 9.496 3.518a14.532 14.532 0 0 1 9.497-3.518c8.086 0 14.64 6.593 14.64 14.726s-6.555 14.726-14.64 14.726c-3.624 0-6.94-1.324-9.497-3.518z" style="fill:var(--color6, #ed0006)"/>
      <path fill="#f9a000" d="M25.6 26.935c3.148-2.701 5.144-6.72 5.144-11.209S28.748 7.219 25.6 4.518A14.53 14.53 0 0 1 35.097 1c8.086 0 14.64 6.593 14.64 14.726s-6.555 14.726-14.64 14.726c-3.624 0-6.94-1.324-9.497-3.518z" style="fill:var(--color7, #f9a000)"/>
      <path fill="#ff5e00" d="M25.6 26.935c3.148-2.701 5.144-6.72 5.144-11.208S28.748 7.22 25.6 4.519c-3.148 2.701-5.144 6.72-5.144 11.208s1.996 8.507 5.144 11.208z" style="fill:var(--color8, #ff5e00)"/>
    </symbol>
    <symbol id="icon-payment-icon-mob" viewBox="0 0 50 32">
      <path fill="#ed0006" d="M25.143 28.078c-2.656 2.194-6.102 3.518-9.867 3.518C6.875 31.596.065 25.003.065 16.87S6.875 2.144 15.276 2.144c3.765 0 7.21 1.324 9.867 3.518 2.656-2.194 6.102-3.518 9.866-3.518 8.401 0 15.211 6.593 15.211 14.726s-6.81 14.726-15.211 14.726c-3.765 0-7.21-1.324-9.867-3.518z" style="fill:var(--color6, #ed0006)"/>
      <path fill="#f9a000" d="M25.143 28.078c3.271-2.701 5.344-6.72 5.344-11.208s-2.074-8.507-5.344-11.208c2.656-2.194 6.102-3.518 9.866-3.518 8.401 0 15.211 6.593 15.211 14.726s-6.81 14.726-15.211 14.726c-3.765 0-7.21-1.324-9.867-3.518z" style="fill:var(--color7, #f9a000)"/>
      <path fill="#ff5e00" d="M25.143 28.078c3.271-2.701 5.344-6.72 5.344-11.208s-2.074-8.507-5.344-11.208c-3.271 2.701-5.344 6.72-5.344 11.208s2.074 8.507 5.344 11.208z" style="fill:var(--color8, #ff5e00)"/>
    </symbol>
    <symbol id="icon-popup-orange-close-dsktp-tab" viewBox="0 0 32 32">
      <path stroke-linecap="round" stroke-linejoin="round" stroke-width="2.909" d="M24 8 8 24M8 8l16 16"/>
    </symbol>
    <symbol id="icon-popup-orange-close-mob" viewBox="0 0 32 32">
      <path stroke-linecap="round" stroke-linejoin="round" stroke-width="3" d="M24 8 8 24M8 8l16 16"/>
    </symbol>
  </defs>
</svg>
